# xmcd CD database file generated by Grip 2.95
# 
# Track frame offsets:
#       150
#       1150
#       31125
#       39530
#       61547
#       86392
#       112235
#       116250
#       129577
#       136272
#       142910
#       163872
#       188580
#       197172
#       221750
#       255990
#       266295
#       270975
#       287472
# 
# Disc length: 4193 seconds
# 
# Revision: 3
# Processed by: cddbd v1.4b42PL1 Copyright (c) Steve Scherf et al.
# Submitted via: Grip 2.95
# 
DISCID=f9105f13
DTITLE=Bugs Henderson - Adventures Of The Shuffle Kings [CD1]
DYEAR=1900
DGENRE=
TTITLE0=Welcome
TTITLE1=Starvation Box
TTITLE2=Blindboy King Jr.
TTITLE3=Johnny Heat
TTITLE4=Takes My Breath Away
TTITLE5=Live And Learn
TTITLE6=Amazing Blues Pedal
TTITLE7=Heartbroke Again
TTITLE8=Autumn Lullaby
TTITLE9=Shuffle King Ad
TTITLE10=Terminal Blue
TTITLE11=Funky Talk
TTITLE12=Kyra
TTITLE13=Armadillo Shake
TTITLE14=Roll Me Over
TTITLE15=Bugs Herderson Ad
TTITLE16=Good Morning
TTITLE17=Angel Baby
TTITLE18=Judi Likes The Blues
EXTD=
EXTT0=
EXTT1=
EXTT2=
EXTT3=
EXTT4=
EXTT5=
EXTT6=
EXTT7=
EXTT8=
EXTT9=
EXTT10=
EXTT11=
EXTT12=
EXTT13=
EXTT14=
EXTT15=
EXTT16=
EXTT17=
EXTT18=
PLAYORDER=
